General
Complete name                    : Survivor.S24E03.HDTV.x264.mSD-KarMa.mp4
Format                           : MPEG-4 (x264)
File size                        : 352 MiB
Duration                         : 42mn 21s
Overall bit rate mode            : Variable
Overall bit rate                 : 1 162 Kbps
Encoded date                     : UTC 2012-03-01 05:56:26
-
Video
ID                               : 1
Format                           : AVC
Format/Info                      : Advanced Video Codec
Format profile                   : High@L3.0
Format settings, CABAC           : Yes
Format settings, ReFrames        : 4 frames
Codec ID                         : avc1
Codec ID/Info                    : Advanced Video Coding
Duration                         : 42mn 21s
Bit rate                         : 1 057 Kbps
Maximum bit rate                 : 6 015 Kbps
Width                            : 720 pixels
Height                           : 404 pixels
Display aspect ratio             : 16:9
Frame rate mode                  : Constant
Frame rate                       : 29.970 fps
Scan type                        : Progressive
Bits/(Pixel*Frame)               : 0.121
Stream size                      : 320 MiB (91%)
Writing library                  : x264 core 112
Encoding settings                : cabac=1 / ref=3 / deblock=1:0:0 / analyse=0x3:0x113 / me=umh / subme=9 / psy=1 / psy_rd=1.00:0.15 / mixed_ref=1 / me_range=26 / chroma_me=1 / trellis=1 
-
Audio
ID                               : 2
Format                           : AAC
Format/Info                      : Advanced Audio Codec
Format profile                   : HE-AAC / LC
Codec ID                         : 40
Duration                         : 42mn 21s
Bit rate mode                    : Variable
Bit rate                         : 102 Kbps
Maximum bit rate                 : 118 Kbps
Channel(s)                       : 2 channels
Channel positions                : Front: L R
Sampling rate                    : 48.0 KHz / 24.0 KHz
Compression mode                 : Lossy
Stream size                      : 30.9 MiB (9%)
 
http://imgcrave.com/u/ZMEIY.png
 
http://imgcrave.com/u/dynFa.png
 
http://imgcrave.com/u/FGeqy.png